Coordinates
version=1
nRows=38
nColumns=38
inDegrees=no

Units are S.I. units (second, meters, Newtons, ...)
If the header above contains a line with 'inDegrees', this indicates whether rotational values are in degrees (yes) or radians (no).

endheader
time	pelvis_tilt	pelvis_list	pelvis_rotation	pelvis_tx	pelvis_ty	pelvis_tz	hip_flexion_r	hip_adduction_r	hip_rotation_r	knee_angle_r	ankle_angle_r	subtalar_angle_r	mtp_angle_r	hip_flexion_l	hip_adduction_l	hip_rotation_l	knee_angle_l	ankle_angle_l	subtalar_angle_l	mtp_angle_l	lumbar_extension	lumbar_bending	lumbar_rotation	arm_flex_r	arm_add_r	arm_rot_r	elbow_flex_r	pro_sup_r	wrist_flex_r	wrist_dev_r	arm_flex_l	arm_add_l	arm_rot_l	elbow_flex_l	pro_sup_l	wrist_flex_l	wrist_dev_l
1.47	2.29824	1.40657	-0.715106	0.83388	0.266656	0.95148	0.0923551	0.128135	-0.235609	0.271464	-0.0213131	0	0	0.0144989	-0.293823	-0.16939	1.06194	-0.210465	0	0	-0.273283	0.179076	0.117966	0.0880412	-0.31308	0.891994	0.362798	0.760607	0	0	0.0851597	-0.166378	0.0847784	0.294631	1.5708	0	0
1.48	2.34498	1.40833	-0.764264	0.835266	0.274931	0.953335	0.072698	0.124514	-0.230892	0.262991	-0.017574	0	0	0.0416066	-0.283722	-0.156801	1.09861	-0.190475	0	0	-0.279323	0.173554	0.121161	0.0884135	-0.311273	0.889442	0.359783	0.763354	0	0	0.087722	-0.165388	0.087525	0.294005	1.5708	0	0
1.49	2.38522	1.41059	-0.806811	0.836602	0.283086	0.955009	0.0549292	0.120668	-0.226521	0.254568	-0.0143856	0	0	0.0693808	-0.273454	-0.14602	1.13019	-0.175223	0	0	-0.283716	0.168339	0.123725	0.0894131	-0.30883	0.886132	0.355314	0.767521	0	0	0.0899049	-0.164336	0.0901853	0.293306	1.5708	0	0
1.5	2.42089	1.41287	-0.844996	0.837928	0.291136	0.956556	0.0383965	0.116917	-0.222433	0.246296	-0.0113648	0	0	0.0969711	-0.264084	-0.138	1.15679	-0.164681	0	0	-0.287161	0.163626	0.126137	0.0907395	-0.306368	0.881817	0.350885	0.773455	0	0	0.0917499	-0.163414	0.0930385	0.292798	1.5708	0	0
1.51	2.45054	1.41504	-0.877106	0.839227	0.29909	0.957953	0.0229955	0.113789	-0.2184	0.238123	-0.00876247	0	0	0.124517	-0.256008	-0.132093	1.1789	-0.155717	0	0	-0.289592	0.159748	0.1284	0.092235	-0.304039	0.877339	0.346521	0.782386	0	0	0.093464	-0.162574	0.0959704	0.292493	1.5708	0	0
1.52	2.47801	1.41718	-0.90732	0.840517	0.306987	0.959264	0.00813532	0.110812	-0.213702	0.230172	-0.00649282	0	0	0.15112	-0.24841	-0.128075	1.19631	-0.145906	0	0	-0.291467	0.155984	0.131029	0.0934643	-0.301822	0.870446	0.342333	0.793791	0	0	0.095351	-0.161825	0.0990808	0.292922	1.5708	0	0
1.53	2.50727	1.41917	-0.939661	0.841819	0.314821	0.960489	-0.00679519	0.107675	-0.209392	0.222448	-0.00329973	0	0	0.176061	-0.241156	-0.126324	1.20897	-0.134305	0	0	-0.293297	0.151779	0.134271	0.0939772	-0.299631	0.859299	0.338504	0.810529	0	0	0.0976019	-0.161927	0.104831	0.293624	1.5708	0	0
1.54	2.53856	1.42031	-0.974086	0.84311	0.322567	0.961667	-0.0231437	0.105031	-0.204764	0.213244	-0.00041056	0	0	0.199246	-0.234853	-0.126554	1.21768	-0.120627	0	0	-0.295562	0.147911	0.136902	0.0961894	-0.304164	0.887509	0.34461	0.76773	0	0	0.102048	-0.160713	0.100046	0.288034	1.5708	0	0
1.55	2.56946	1.42145	-1.00878	0.844479	0.33029	0.962712	-0.0393902	0.102267	-0.199457	0.20364	0.00211025	0	0	0.221157	-0.229403	-0.129101	1.22213	-0.105504	0	0	-0.297583	0.143389	0.141171	0.0963082	-0.30386	0.883905	0.3434	0.771622	0	0	0.105761	-0.16116	0.103356	0.286099	1.5708	0	0
1.56	2.60161	1.42248	-1.04534	0.84592	0.337994	0.963667	-0.0555119	0.0991908	-0.192831	0.194281	0.00402157	0	0	0.24127	-0.224724	-0.13394	1.22178	-0.0912781	0	0	-0.299576	0.138342	0.145904	0.0964689	-0.303351	0.87748	0.342942	0.773336	0	0	0.109012	-0.162197	0.106679	0.284879	1.5708	0	0
1.57	2.63664	1.42322	-1.08451	0.847302	0.345598	0.964559	-0.0715479	0.0955947	-0.186356	0.185497	0.00643008	0	0	0.259696	-0.220239	-0.140187	1.21649	-0.0799187	0	0	-0.301962	0.132884	0.150286	0.0970052	-0.303005	0.872326	0.343036	0.775407	0	0	0.111884	-0.163664	0.110267	0.285246	1.5708	0	0
1.58	2.66978	1.42341	-1.12157	0.848668	0.353124	0.965408	-0.0876471	0.0924142	-0.180233	0.17679	0.00893499	0	0	0.276501	-0.217038	-0.147889	1.20671	-0.0704951	0	0	-0.304709	0.127727	0.154576	0.0978877	-0.302696	0.869009	0.34318	0.779653	0	0	0.114564	-0.165379	0.113953	0.286235	1.5708	0	0
1.59	2.69854	1.42334	-1.15438	0.850066	0.360661	0.966137	-0.103608	0.089868	-0.174306	0.16781	0.0117717	0	0	0.291794	-0.215302	-0.156616	1.19344	-0.0622025	0	0	-0.307184	0.12302	0.159037	0.0989107	-0.302101	0.865269	0.342802	0.785643	0	0	0.116574	-0.167209	0.117311	0.288639	1.5708	0	0
1.6	2.72371	1.42305	-1.1833	0.851409	0.368157	0.966761	-0.119282	0.0877081	-0.169557	0.158959	0.0146236	0	0	0.30562	-0.214141	-0.165454	1.17603	-0.0556169	0	0	-0.30949	0.118761	0.163229	0.100047	-0.300915	0.860115	0.341721	0.793058	0	0	0.118648	-0.169006	0.121101	0.290699	1.5708	0	0
1.61	2.7473	1.42237	-1.21047	0.852733	0.375631	0.9673	-0.135492	0.085927	-0.164945	0.149357	0.0167958	0	0	0.317609	-0.213087	-0.174665	1.15433	-0.0497968	0	0	-0.31191	0.114658	0.167266	0.101214	-0.298845	0.853012	0.339613	0.802759	0	0	0.12106	-0.170863	0.126293	0.292268	1.5708	0	0
1.62	2.7701	1.42124	-1.23644	0.85401	0.383198	0.967753	-0.152704	0.084455	-0.160153	0.138831	0.0202289	0	0	0.327585	-0.212253	-0.185058	1.12869	-0.0433146	0	0	-0.314401	0.110696	0.170782	0.102166	-0.296228	0.844425	0.336974	0.815684	0	0	0.123245	-0.17311	0.133337	0.293556	1.5708	0	0
1.63	2.79166	1.41864	-1.26127	0.855277	0.390893	0.968256	-0.173533	0.0839444	-0.151985	0.123927	0.022259	0	0	0.334021	-0.211521	-0.195878	1.09932	-0.0350206	0	0	-0.317864	0.107576	0.173008	0.105601	-0.300245	0.882372	0.34377	0.763241	0	0	0.128137	-0.171947	0.122601	0.285319	1.5708	0	0
1.64	2.81461	1.41685	-1.28658	0.856388	0.39844	0.968631	-0.191832	0.0821571	-0.14679	0.112226	0.0263572	0	0	0.339628	-0.210935	-0.209079	1.06616	-0.0282501	0	0	-0.321073	0.103762	0.175033	0.107333	-0.298141	0.881621	0.341872	0.766736	0	0	0.13191	-0.172534	0.123377	0.282339	1.5708	0	0
1.65	2.84162	1.41552	-1.31557	0.857368	0.405868	0.968918	-0.208979	0.0792372	-0.141034	0.102065	0.0270436	0	0	0.343119	-0.209351	-0.224289	1.02873	-0.0213845	0	0	-0.324387	0.0991756	0.176243	0.109502	-0.29595	0.87966	0.340219	0.769857	0	0	0.135956	-0.172825	0.123281	0.279205	1.5708	0	0
1.66	2.92379	1.4091	-1.40047	0.858741	0.412719	0.970444	-0.232773	0.0681022	-0.135669	0.0913087	0.0291862	0	0	0.337804	-0.199916	-0.242803	0.986853	-0.0216949	0	0	-0.337431	0.0848902	0.1768	0.114946	-0.290583	0.87602	0.336122	0.773882	0	0	0.144035	-0.174835	0.123568	0.274435	1.5708	0	0
1.67	2.88954	1.41272	-1.36698	0.859101	0.420805	0.969089	-0.242945	0.0735755	-0.130942	0.0812325	0.034307	0	0	0.345355	-0.202377	-0.251807	0.944222	-0.00645352	0	0	-0.330782	0.0910171	0.178363	0.113623	-0.29098	0.872589	0.33584	0.778411	0	0	0.144248	-0.173346	0.124276	0.271182	1.5708	0	0
1.68	2.90969	1.41141	-1.38838	0.859741	0.428248	0.968982	-0.25943	0.0711878	-0.125215	0.0712722	0.0351755	0	0	0.344757	-0.196533	-0.262898	0.897352	0.000915358	0	0	-0.333734	0.0878058	0.178951	0.115884	-0.288491	0.868494	0.332861	0.783752	0	0	0.147935	-0.173459	0.125847	0.268283	1.5708	0	0
1.69	2.926	1.41034	-1.40597	0.860295	0.435716	0.968724	-0.274691	0.0692033	-0.11947	0.063095	0.0364428	0	0	0.343185	-0.1899	-0.273021	0.847624	0.00686776	0	0	-0.336339	0.0851937	0.179749	0.118001	-0.286675	0.864644	0.330632	0.790828	0	0	0.151292	-0.173725	0.128411	0.266271	1.5708	0	0
1.7	2.93768	1.4096	-1.41889	0.8607	0.443128	0.968303	-0.288804	0.0676433	-0.114142	0.0559632	0.0382755	0	0	0.340441	-0.183376	-0.284445	0.794888	0.0108548	0	0	-0.338772	0.083441	0.180609	0.120169	-0.285283	0.860251	0.328777	0.799818	0	0	0.154364	-0.174133	0.132436	0.265159	1.5708	0	0
1.71	2.94264	1.41046	-1.42391	0.860854	0.450589	0.967547	-0.30062	0.0668811	-0.111068	0.0498499	0.0401619	0	0	0.339004	-0.176592	-0.294774	0.741167	0.0147664	0	0	-0.339101	0.0830995	0.180299	0.121868	-0.284095	0.854984	0.327145	0.809048	0	0	0.156244	-0.17482	0.13771	0.265591	1.5708	0	0
1.72	2.95223	1.41029	-1.43284	0.860823	0.458243	0.966799	-0.316904	0.0659463	-0.104034	0.037287	0.039829	0	0	0.333943	-0.1674	-0.304481	0.683391	0.0178714	0	0	-0.339964	0.0827769	0.177768	0.12606	-0.290322	0.90116	0.336309	0.743275	0	0	0.161702	-0.171765	0.119428	0.253875	1.5708	0	0
1.73	2.9652	1.42063	-1.4503	0.860298	0.464846	0.964902	-0.323961	0.0613163	-0.106251	0.0165064	0.0385094	0	0	0.339803	-0.154116	-0.313388	0.623664	0.0188055	0	0	-0.332617	0.08023	0.180703	0.129285	-0.293137	0.901517	0.337211	0.744205	0	0	0.165131	-0.168981	0.120349	0.251631	1.5708	0	0
1.74	2.97367	1.4219	-1.45643	0.859892	0.472546	0.963819	-0.334993	0.0597149	-0.10727	0.0113578	0.0438527	0	0	0.333535	-0.141764	-0.318946	0.560294	0.0225002	0	0	-0.331978	0.0799999	0.177778	0.131109	-0.292939	0.90133	0.336468	0.745455	0	0	0.167513	-0.169197	0.122542	0.249156	1.5708	0	0
1.75	3.01633	1.42199	-1.49578	0.859278	0.479718	0.963295	-0.34622	0.0528236	-0.10974	0.00814238	0.0489461	0	0	0.309223	-0.108191	-0.291051	0.460293	0.0174193	0	0	-0.335014	0.0744686	0.173054	0.135109	-0.292003	0.901277	0.334777	0.74841	0	0	0.172021	-0.17019	0.126897	0.246635	1.5708	0	0
1.76	3.05113	1.42109	-1.52835	0.859228	0.487063	0.96278	-0.358236	0.0477073	-0.110939	0.00522057	0.0533525	0	0	0.29767	-0.0911532	-0.29083	0.393892	0.0153674	0	0	-0.338584	0.0687924	0.169695	0.138836	-0.289859	0.902653	0.332664	0.753144	0	0	0.175761	-0.172789	0.132889	0.246583	1.5708	0	0
1.77	3.00508	1.42844	-1.4781	0.857822	0.495742	0.960084	-0.362868	0.0535538	-0.110744	0.00130169	0.0601532	0	0	0.292082	-0.0841901	-0.291006	0.324507	0.0185651	0	0	-0.327377	0.0786028	0.166625	0.135918	-0.29371	0.901242	0.335266	0.760264	0	0	0.172265	-0.171793	0.140218	0.247955	1.5708	0	0
1.78	3.00246	1.43089	-1.47171	0.856914	0.503823	0.958493	-0.37157	0.0533924	-0.113031	1.59931e-08	0.0666688	0	0	0.280874	-0.0713603	-0.287593	0.25721	0.0164253	0	0	-0.324257	0.0800933	0.162764	0.136153	-0.293666	0.896897	0.334534	0.768376	0	0	0.171528	-0.173216	0.150286	0.250675	1.5708	0	0
1.79	2.98933	1.43426	-1.45481	0.855976	0.512023	0.956694	-0.379225	0.05473	-0.115403	0	0.0725554	0	0	0.272227	-0.0614968	-0.28609	0.196873	0.0173344	0	0	-0.319532	0.0827531	0.159121	0.13557	-0.292991	0.889816	0.332961	0.778409	0	0	0.169526	-0.175297	0.164362	0.255321	1.5708	0	0
1.8	2.99388	1.43406	-1.45616	0.854923	0.520601	0.955293	-0.391945	0.0535778	-0.118423	0	0.078391	0	0	0.249281	-0.0456028	-0.269299	0.119239	0.00589169	0	0	-0.318193	0.0839538	0.15268	0.139798	-0.302755	0.956733	0.346966	0.685635	0	0	0.175981	-0.168052	0.116373	0.233651	1.5708	0	0
1.81	2.98081	1.43587	-1.44172	0.854168	0.52941	0.953544	-0.401246	0.0542733	-0.118996	0	0.0843695	0	0	0.234473	-0.0361406	-0.263977	0.0593087	0.00130351	0	0	-0.314153	0.0860126	0.150472	0.138821	-0.303232	0.958597	0.347471	0.686953	0	0	0.174593	-0.168181	0.116427	0.232933	1.5708	0	0
1.82	2.95087	1.42985	-1.40494	0.853886	0.539232	0.952492	-0.412521	0.0597454	-0.116039	0.00820767	0.094783	0	0	0.215036	-0.032613	-0.261915	0.0126853	0.00266426	0	0	-0.315535	0.0911456	0.14391	0.136458	-0.299842	0.959666	0.345745	0.688867	0	0	0.172339	-0.171183	0.117058	0.231378	1.5708	0	0
1.83	2.93091	1.43172	-1.38368	0.853209	0.548166	0.950655	-0.420093	0.0613888	-0.118133	0.00963116	0.100706	0	0	0.211112	-0.0285618	-0.275033	0	0.00433162	0	0	-0.311181	0.0936571	0.141974	0.135341	-0.299301	0.960894	0.345274	0.687687	0	0	0.171024	-0.1713	0.116166	0.229716	1.5708	0	0
1.84	2.93244	1.42966	-1.38284	0.852735	0.556356	0.949089	-0.427924	0.0643278	-0.117622	0.0189259	0.106202	0	0	0.220205	-0.0250649	-0.288254	0	0.00711151	0	0	-0.312278	0.0932834	0.139929	0.134655	-0.29812	0.959514	0.343992	0.695679	0	0	0.1704	-0.171978	0.119938	0.230255	1.5708	0	0
